<svg xmlns="http://www.w3.org/2000/svg" width="180" height="51" viewBox="0 0 180 51" fill="none"><g clip-path="url(#clip0_202_4643)"><path d="M1.60075 11.09V11.4517C1.60075 12.7908 1.87781 13.3373 2.73975 13.6143C3.52473 13.876 5.00235 13.9914 7.41118 13.9914C12.6367 13.9914 13.5833 13.5912 13.5833 11.3671C13.5833 10.2435 13.2447 9.74325 12.3443 9.48159C11.4592 9.24302 11.3823 9.24302 5.41024 9.20454C2.98602 9.18145 1.94707 9.00445 1.12361 8.46573C0.323229 7.92702 0 7.18051 0 5.86451C0 3.85587 0.723417 2.71687 2.30108 2.25512C3.44008 1.9165 5.20245 1.75488 7.94989 1.75488C11.036 1.75488 12.6213 1.97806 13.5371 2.55526C14.5222 3.15554 14.8224 3.85587 14.8762 5.71828H13.314C13.2909 4.65625 13.1139 4.1791 12.6752 3.83278C12.0518 3.35564 10.6742 3.15554 7.96528 3.15554C2.69357 3.15554 1.67771 3.57882 1.67771 5.71828C1.67771 6.6418 1.93937 7.15742 2.50118 7.41908C3.20151 7.74231 3.80179 7.78079 7.58818 7.79619C11.8363 7.81927 12.7598 7.89623 13.7218 8.35799C14.807 8.88131 15.2456 9.78173 15.2456 11.4441C15.2456 13.2911 14.6223 14.3916 13.2986 14.8918C12.3135 15.2535 10.7974 15.3921 7.71132 15.3921C4.46364 15.3921 2.93984 15.2535 1.86241 14.8918C0.66185 14.4686 0 13.4527 0 12.0059V11.0823H1.60075V11.09Z" fill="#ABABAB"></path><path d="M23.6189 3.2324H16.8311V1.89331H31.9997V3.2324H25.2273V15.2534H23.6266V3.2324H23.6189Z" fill="#ABABAB"></path><path d="M50.0081 1.89331V10.9668C50.0081 12.4521 49.9696 12.8523 49.808 13.3295C49.1846 15.0149 47.807 15.392 42.1351 15.392C37.5099 15.392 35.9861 15.1534 35.1011 14.3068C34.6239 13.8451 34.3776 13.3064 34.3007 12.5214C34.2622 12.1982 34.2622 11.8826 34.2622 10.9591V1.89331H35.863V10.6898C35.863 11.9288 35.863 12.0519 35.9399 12.3752C36.2631 13.7758 37.102 13.999 42.1274 13.999C46.3756 13.999 47.453 13.8374 47.9994 13.0986C48.3611 12.5983 48.3996 12.3752 48.3996 10.6974V1.89331H50.0004H50.0081Z" fill="#ABABAB"></path><path d="M53.5945 1.89331H63.9917C66.9392 1.89331 68.4168 2.43203 69.2172 3.84038C69.8175 4.82546 70.1022 6.40312 70.1022 8.56568C70.1022 10.7282 69.8252 12.329 69.2172 13.3141C68.4168 14.7147 66.9315 15.2611 63.9917 15.2611H53.5945V1.89331ZM64.1148 13.9143C66.0003 13.9143 67.2163 13.4757 67.7627 12.6137C68.2244 11.8518 68.4399 10.6128 68.4399 8.65033C68.4399 6.58782 68.2013 5.18717 67.7165 4.44066C67.1778 3.6172 66.0311 3.2401 63.9917 3.2401H55.1952V13.922H64.1071L64.1148 13.9143Z" fill="#ABABAB"></path><path d="M73.4346 1.89331H75.0353V15.2534H73.4346V1.89331Z" fill="#ABABAB"></path><path d="M94.5059 2.97072C95.3679 3.87115 95.5679 4.91779 95.5679 8.55796C95.5679 12.1981 95.3679 13.2679 94.5059 14.1683C93.4824 15.2303 92.4588 15.3919 86.9716 15.3919C81.4844 15.3919 80.4608 15.2303 79.4373 14.1683C78.5753 13.2679 78.3752 12.2212 78.3752 8.58105C78.3752 4.94088 78.5753 3.85575 79.4373 2.97072C80.4608 1.90868 81.4844 1.74707 87.0486 1.74707C92.6127 1.74707 93.4824 1.92408 94.4982 2.97072H94.5059ZM80.7456 3.97889C80.1838 4.56378 80.0453 5.51807 80.0453 8.58875C80.0453 11.6594 80.1838 12.5983 80.7456 13.1755C81.4228 13.8989 82.2694 13.999 86.9793 13.999C91.6892 13.999 92.5281 13.8758 93.213 13.1755C93.7748 12.5906 93.9133 11.6363 93.9133 8.58875C93.9133 5.54116 93.7748 4.56378 93.213 3.97889C92.5896 3.30165 91.4737 3.15542 87.0639 3.15542C82.6542 3.15542 81.3921 3.29395 80.7533 3.97889H80.7456Z" fill="#ABABAB"></path><path d="M0.515625 20.4636H3.72483V34.3702H0.515625V20.4636Z" fill="#ABABAB"></path><path d="M7.4574 20.4636H12.4367L22.88 32.0383L22.8185 20.4636H25.8814V34.3702H20.8791L10.4973 22.8648L10.5589 34.3702H7.44971V20.4636H7.4574Z" fill="#ABABAB"></path><path d="M29.5986 20.4636H43.7745V22.9032H32.7847V26.4895H43.2127V28.9061H32.7847V34.3702H29.5986V20.4636Z" fill="#ABABAB"></path><path d="M46.5757 20.4636H49.7849V34.3702H46.5757V20.4636Z" fill="#ABABAB"></path><path d="M53.5175 20.4636H58.4967L68.9401 32.0383L68.8785 20.4636H71.9415V34.3702H66.9392L56.5574 22.8648L56.6189 34.3702H53.5098V20.4636H53.5175Z" fill="#ABABAB"></path><path d="M75.6587 20.4636H78.8679V34.3702H75.6587V20.4636Z" fill="#ABABAB"></path><path d="M88.0028 23.0725H81.4536V20.4636H97.7382V23.0725H91.212V34.3702H88.0028V23.0725Z" fill="#ABABAB"></path><path d="M100.324 20.4636H115.108V22.9032H103.495V26.1971H114.546V28.3827H103.495V31.9306H115.231V34.3702H100.324V20.4636Z" fill="#ABABAB"></path><path d="M134.009 8.16549L148.793 33.5236H173.912C176.891 33.5236 179.3 31.4072 179.3 28.7906V6.08759C179.3 3.11696 176.675 0.700439 173.443 0.700439H154.957L147.631 8.53489" stroke="#F2C60F" stroke-width="1.82" stroke-miterlimit="10"></path><path d="M118.763 33.5237H129.83L137.157 25.6892" stroke="#ABABAB" stroke-width="1.82" stroke-miterlimit="10"></path><path d="M150.779 26.0585L135.995 0.700439H110.875C107.897 0.700439 105.488 2.81682 105.488 5.43343V12.6214" stroke="#ABABAB" stroke-width="1.82" stroke-miterlimit="10"></path><path d="M0.330811 43.0896H1.42363V49.9236H0.330811V43.0896Z" fill="#ABABAB"></path><path d="M8.00375 48.2843L7.98836 43.0896H9.0427V49.9236H8.04223L4.47132 44.7211L4.48671 49.9236H3.43237V43.0896H4.45593L8.00375 48.2843Z" fill="#ABABAB"></path><path d="M11.79 47.8994C11.8669 48.923 12.5826 49.1307 12.9443 49.1307C13.5523 49.1307 14.0757 48.6536 14.0757 48.0379C14.0757 47.2837 13.4292 47.1067 12.5519 46.7835C12.0131 46.6065 10.828 46.214 10.828 44.9288C10.8203 43.6512 11.9054 42.9663 12.9751 42.9663C13.8525 42.9663 14.953 43.4435 15.0299 44.8518H13.9602C13.8833 44.4824 13.7216 43.8898 12.9367 43.8898C12.3825 43.8898 11.9054 44.2669 11.9054 44.8518C11.9054 45.5137 12.4133 45.683 13.5138 46.0909C14.3604 46.4526 15.1531 46.8835 15.1531 47.9917C15.1531 49.1 14.4066 50.062 12.9443 50.062C11.5899 50.062 10.7202 49.2308 10.7048 47.9148H11.7823L11.79 47.8994Z" fill="#ABABAB"></path><path d="M18.7164 43.0895C19.7784 43.0895 20.2325 43.228 20.6403 43.5512C21.1175 43.9206 21.3945 44.5748 21.3945 45.229C21.3945 45.8831 21.1098 46.568 20.6865 46.9067C20.2248 47.2684 19.763 47.4146 18.8241 47.4146H17.8621V49.9158H16.7693V43.0818H18.7164V43.0895ZM17.8544 46.4603H18.7933C19.2243 46.4603 19.5629 46.4141 19.8554 46.2294C20.1324 46.0755 20.3479 45.7138 20.3479 45.252C20.3479 44.7903 20.1324 44.4363 19.8477 44.2747C19.5398 44.09 19.2089 44.0515 18.7548 44.0515H17.8467V46.4603H17.8544Z" fill="#ABABAB"></path><path d="M22.8491 43.0896H23.9419V49.9236H22.8491V43.0896Z" fill="#ABABAB"></path><path d="M25.9197 43.0896H27.8514C28.9211 43.0896 29.4752 43.2358 29.8369 43.4898C30.3987 43.8592 30.745 44.5672 30.745 45.3368C30.745 45.814 30.6065 46.2757 30.3602 46.6374C30.0062 47.13 29.5675 47.2916 29.0442 47.3839L30.6527 49.9236H29.4983L27.6282 46.8375H27.8667C28.3362 46.8375 28.9057 46.8221 29.2289 46.5451C29.5445 46.268 29.6984 45.8678 29.6984 45.4292C29.6984 44.9905 29.4752 44.5133 29.1135 44.2748C28.821 44.0901 28.4362 44.0516 27.9514 44.0516H27.0202V49.9236H25.9274V43.0896H25.9197Z" fill="#ABABAB"></path><path d="M32.2688 43.0896H36.086V44.0516H33.3539V45.991H36.0475V46.9453H33.3539V48.9693H36.086V49.9313H32.2688V43.0973V43.0896Z" fill="#ABABAB"></path><path d="M47.1913 41.458V50.6854H46.137V41.458H47.1913Z" fill="#ABABAB"></path><path d="M57.4114 43.0896H58.5042V49.9236H57.4114V43.0896Z" fill="#ABABAB"></path><path d="M65.0843 48.2843L65.0689 43.0896H66.1233V49.9236H65.1228L61.5519 44.7211L61.5673 49.9236H60.5129V43.0896H61.5365L65.0843 48.2843Z" fill="#ABABAB"></path><path d="M72.7032 48.2843L72.6878 43.0896H73.7422V49.9236H72.7417L69.1708 44.7211L69.1862 49.9236H68.1318V43.0896H69.1554L72.7032 48.2843Z" fill="#ABABAB"></path><path d="M75.443 46.5373C75.443 44.3902 77.0976 42.9587 79.0139 42.9587C81.0533 42.9587 82.5925 44.5364 82.5925 46.5066C82.5925 48.4767 81.0533 50.0544 78.9985 50.0544C76.9437 50.0544 75.4353 48.4382 75.4353 46.5527L75.443 46.5373ZM76.5281 46.5066C76.5281 47.9303 77.5825 49.0924 79.037 49.0924C80.4915 49.0924 81.5074 47.8457 81.5074 46.5143C81.5074 45.1829 80.5223 43.9207 79.0216 43.9207C77.5209 43.9207 76.5204 45.1213 76.5204 46.4989L76.5281 46.5066Z" fill="#ABABAB"></path><path d="M83.3237 43.0896H84.4473L86.4252 48.5922L88.4107 43.0896H89.5343L86.9562 49.9236H85.8788L83.3237 43.0896Z" fill="#ABABAB"></path><path d="M90.6503 49.9158H89.4651L92.2741 43.0818H93.2592L96.022 49.9158H94.8368L94.1904 48.2996H91.2736L90.6426 49.9158H90.6503ZM92.7282 44.3516L91.5738 47.4223H93.8979L92.7282 44.3516Z" fill="#ABABAB"></path><path d="M97.7765 44.0516H96.2065V43.0896H100.432V44.0516H98.8616V49.9236H97.7688V44.0516H97.7765Z" fill="#ABABAB"></path><path d="M101.855 43.0896H105.673V44.0516H102.941V45.991H105.634V46.9453H102.941V48.9693H105.673V49.9313H101.855V43.0973V43.0896Z" fill="#ABABAB"></path><path d="M116.778 41.458V50.6854H115.724V41.458H116.778Z" fill="#ABABAB"></path><path d="M126.998 43.0896H128.091V49.9236H126.998V43.0896Z" fill="#ABABAB"></path><path d="M134.671 48.2843L134.656 43.0896H135.71V49.9236H134.709L131.139 44.7211L131.154 49.9236H130.1V43.0896H131.123L134.671 48.2843Z" fill="#ABABAB"></path><path d="M138.704 44.0516H137.134V43.0896H141.359V44.0516H139.789V49.9236H138.696V44.0516H138.704Z" fill="#ABABAB"></path><path d="M142.79 43.0896H146.607V44.0516H143.875V45.991H146.569V46.9453H143.875V48.9693H146.607V49.9313H142.79V43.0973V43.0896Z" fill="#ABABAB"></path><path d="M153.787 45.0289C153.61 44.7827 153.403 44.5595 153.156 44.3825C152.756 44.0977 152.279 43.9207 151.717 43.9207C150.424 43.9207 149.216 44.8981 149.216 46.4835C149.216 48.0688 150.432 49.0847 151.717 49.0847C152.348 49.0847 152.887 48.8923 153.295 48.5768C153.711 48.2612 153.995 47.8303 154.095 47.3608H151.148V46.4758H155.357C155.357 46.9067 155.281 47.4993 155.05 48.0073C154.419 49.3618 153.01 50.0467 151.717 50.0467C149.693 50.0467 148.123 48.4844 148.123 46.4835C148.123 44.4825 149.739 42.9587 151.725 42.9587C153.195 42.9587 154.511 43.8438 155.003 45.0289H153.78H153.787Z" fill="#ABABAB"></path><path d="M156.981 43.0896H158.913C159.983 43.0896 160.537 43.2358 160.899 43.4898C161.46 43.8592 161.807 44.5672 161.807 45.3368C161.807 45.814 161.668 46.2757 161.422 46.6374C161.068 47.13 160.629 47.2916 160.106 47.3839L161.714 49.9236H160.56L158.69 46.8375H158.929C159.398 46.8375 159.967 46.8221 160.291 46.5451C160.606 46.268 160.76 45.8678 160.76 45.4292C160.76 44.9905 160.537 44.5133 160.175 44.2748C159.883 44.0901 159.498 44.0516 159.013 44.0516H158.082V49.9236H156.989V43.0896H156.981Z" fill="#ABABAB"></path><path d="M163.939 49.9158H162.753L165.562 43.0818H166.548L169.31 49.9158H168.125L167.479 48.2996H164.562L163.931 49.9158H163.939ZM166.016 44.3516L164.862 47.4223H167.186L166.016 44.3516Z" fill="#ABABAB"></path><path d="M171.065 44.0516H169.495V43.0896H173.72V44.0516H172.15V49.9236H171.057V44.0516H171.065Z" fill="#ABABAB"></path><path d="M175.151 43.0896H178.969V44.0516H176.236V45.991H178.93V46.9453H176.236V48.9693H178.969V49.9313H175.151V43.0973V43.0896Z" fill="#ABABAB"></path></g><defs><clipPath id="clip0_202_4643"><rect width="180" height="50.6854" fill="white"></rect></clipPath></defs></svg>